<?xml version="1.0" ?><svg data-name="Layer 1" id="Layer_1" viewBox="0 0 32 32" xmlns="http://www.w3.org/2000/svg"><defs><style>.cls-1{fill:#ba63c6;}</style></defs><title/><path class="cls-1" d="M27,30H4.87A4.78,4.78,0,0,1,0,25.08V9C.13,5.88,2,4,5,4h5.26a5.19,5.19,0,0,1,4.83,2.44L16.26,8H27.09c3,.13,4.72,1.86,4.91,4.87,0,0,0,.08,0,.13V25a4.86,4.86,0,0,1-4.87,5ZM5.07,26H26.93c.88-.07,1-.33,1.07-1.09V13.07c-.06-.93-.23-1-1-1.07H15.26a2,2,0,0,1-1.6-.8l-1.8-2.4C11.34,8.06,11.2,8,10.3,8H5C4.34,8,4,8,4,9.09V25C4,25.71,4.14,25.93,5.07,26Z"/></svg>